<svg width="24" height="24" viewBox="0 0 24 24" xmlns="http://www.w3.org/2000/svg" xmlns:xlink="http://www.w3.org/1999/xlink">
    <path id="Path" fill="#ffffff" stroke="none" d="M 18.791201 13 L 7.62124 13 L 12.501241 17.879999 C 12.891241 18.27 12.891241 18.91 12.501241 19.299999 C 12.111241 19.690001 11.481241 19.690001 11.091241 19.299999 L 4.501241 12.71 C 4.11124 12.32 4.11124 11.69 4.501241 11.3 L 11.081241 4.699961 C 11.268041 4.512699 11.521641 4.407471 11.786241 4.407471 C 12.050741 4.407471 12.304341 4.512699 12.491241 4.699961 C 12.881241 5.08996 12.881241 5.719959 12.491241 6.109961 L 7.62124 11 L 18.791201 11 C 19.3412 11 19.791201 11.45 19.791201 12 C 19.791201 12.55 19.3412 13 18.791201 13 Z"/>
</svg>
