<svg width="18" height="18" viewBox="0 0 18 18" fill="none" xmlns="http://www.w3.org/2000/svg">
<path fill-rule="evenodd" clip-rule="evenodd" d="M2 15C2 15.55 2.45 16 3 16H15C15.55 16 16 15.55 16 15V10C16 9.45 16.45 9 17 9C17.55 9 18 9.45 18 10V16C18 17.1 17.1 18 16 18H2C0.9 18 0 17.1 0 16V2C0 0.9 0.89 0 2 0H8C8.55 0 9 0.45 9 1C9 1.55 8.55 2 8 2H3C2.45 2 2 2.45 2 3V15ZM12 2C11.45 2 11 1.55 11 1C11 0.45 11.45 0 12 0H17C17.55 0 18 0.45 18 1V6C18 6.55 17.55 7 17 7C16.45 7 16 6.55 16 6V3.41L6.87 12.54C6.48 12.93 5.85 12.93 5.46 12.54C5.07 12.15 5.07 11.52 5.46 11.13L14.59 2H12Z" fill="white"/>
</svg>
