<?xml version="1.0" standalone="no"?>
<!DOCTYPE svg PUBLIC "-//W3C//DTD SVG 20010904//EN"
 "http://www.w3.org/TR/2001/REC-SVG-20010904/DTD/svg10.dtd">
<svg version="1.0" xmlns="http://www.w3.org/2000/svg"
 width="271.000000pt" height="271.000000pt" viewBox="0 0 271.000000 271.000000"
 preserveAspectRatio="xMidYMid meet">
<metadata>
Created by potrace 1.14, written by Peter Selinger 2001-2017
</metadata>
<g transform="translate(0.000000,271.000000) scale(0.100000,-0.100000)"
fill="#000000" stroke="none">
<path d="M1257 2704 c-1 -1 -31 -5 -67 -8 -36 -4 -83 -11 -105 -17 -22 -5 -49
-12 -61 -14 -12 -3 -55 -16 -98 -30 -328 -107 -638 -384 -786 -702 -87 -185
-124 -350 -124 -553 -1 -165 6 -235 35 -351 75 -302 248 -560 506 -755 164
-124 392 -221 583 -248 19 -3 53 -8 75 -11 48 -8 221 -7 290 0 137 14 310 63
430 121 288 138 510 361 645 648 94 198 130 373 125 601 -7 369 -138 674 -399
930 -117 115 -169 154 -302 227 -140 78 -296 129 -472 154 -37 6 -270 13 -275
8z m273 -229 c419 -73 743 -333 888 -711 154 -405 70 -846 -227 -1175 -75 -84
-140 -112 -263 -115 -272 -7 -611 171 -934 491 -147 145 -218 232 -307 373
-67 108 -157 290 -157 321 0 11 -4 22 -9 25 -4 3 -11 22 -15 43 -4 21 -10 52
-14 68 -14 63 -8 218 11 267 34 88 179 216 337 297 74 39 250 106 250 96 0 -2
15 1 33 6 17 5 57 12 87 15 30 3 56 7 58 9 5 4 226 -3 262 -10z"/>
</g>
</svg>
