<svg width="29" height="28" viewBox="0 0 29 28" fill="none" xmlns="http://www.w3.org/2000/svg">
<path d="M27.5 23V24.5C27.5 26.15 26.15 27.5 24.5 27.5H3.5C1.835 27.5 0.5 26.15 0.5 24.5V3.5C0.5 1.85 1.835 0.5 3.5 0.5H24.5C26.15 0.5 27.5 1.85 27.5 3.5V5H14C12.335 5 11 6.35 11 8V20C11 21.65 12.335 23 14 23H27.5ZM14 20H29V8H14V20ZM20 16.25C18.755 16.25 17.75 15.245 17.75 14C17.75 12.755 18.755 11.75 20 11.75C21.245 11.75 22.25 12.755 22.25 14C22.25 15.245 21.245 16.25 20 16.25Z" fill="white"/>
</svg>
