<svg width="93" height="230" viewBox="0 0 93 230" fill="none" xmlns="http://www.w3.org/2000/svg">
<line x1="0.5" y1="4" x2="29.5" y2="4" stroke="white" stroke-opacity="0.7"/>
<line x1="0.5" y1="12.3333" x2="12.5" y2="12.3333" stroke="white"/>
<line x1="0.5" y1="20.6667" x2="12.5" y2="20.6667" stroke="white"/>
<line x1="0.5" y1="29" x2="12.5" y2="29" stroke="white"/>
<line x1="0.5" y1="37.3333" x2="12.5" y2="37.3333" stroke="white"/>
<line x1="0.5" y1="45.6667" x2="12.5" y2="45.6667" stroke="white"/>
<line x1="0.5" y1="54" x2="12.5" y2="54" stroke="white"/>
<line x1="0.5" y1="62.3333" x2="12.5" y2="62.3333" stroke="white"/>
<line x1="0.5" y1="70.6667" x2="12.5" y2="70.6667" stroke="white"/>
<line x1="0.5" y1="79" x2="12.5" y2="79" stroke="white"/>
<line x1="0.5" y1="87.3333" x2="12.5" y2="87.3333" stroke="white"/>
<line x1="0.5" y1="95.6667" x2="12.5" y2="95.6667" stroke="white"/>
<line x1="0.5" y1="104" x2="12.5" y2="104" stroke="white"/>
<line x1="0.5" y1="112.333" x2="29.5" y2="112.333" stroke="white" stroke-opacity="0.7"/>
<line x1="0.5" y1="120.667" x2="12.5" y2="120.667" stroke="white"/>
<line x1="0.5" y1="129" x2="12.5" y2="129" stroke="white"/>
<line x1="0.5" y1="137.333" x2="12.5" y2="137.333" stroke="white"/>
<line x1="0.5" y1="145.667" x2="12.5" y2="145.667" stroke="white"/>
<line x1="0.5" y1="154" x2="12.5" y2="154" stroke="white"/>
<line x1="0.5" y1="162.333" x2="12.5" y2="162.333" stroke="white"/>
<line x1="0.5" y1="170.667" x2="12.5" y2="170.667" stroke="white"/>
<line x1="0.5" y1="179" x2="12.5" y2="179" stroke="white"/>
<line x1="0.5" y1="187.333" x2="12.5" y2="187.333" stroke="white"/>
<line x1="0.5" y1="195.667" x2="12.5" y2="195.667" stroke="white"/>
<line x1="0.5" y1="204" x2="12.5" y2="204" stroke="white"/>
<line x1="0.5" y1="212.333" x2="12.5" y2="212.333" stroke="white"/>
<line x1="0.5" y1="220.667" x2="12.5" y2="220.667" stroke="white"/>
<line x1="0.5" y1="229" x2="29.5" y2="229" stroke="white" stroke-opacity="0.7"/>
<path d="M47.6937 5.84H45.9297L44.3477 6.904V8.794L45.7337 7.884V15.5H47.6937V5.84ZM57.1862 8.78C57.1862 6.526 55.6742 5.714 53.9382 5.714C52.2022 5.714 50.6902 6.526 50.6902 8.794V12.546C50.6902 14.716 52.2022 15.626 53.9382 15.626C55.6742 15.626 57.1862 14.716 57.1862 12.546V8.78ZM55.2262 8.962V12.378C55.2262 13.414 54.8062 13.974 53.9382 13.974C53.0562 13.974 52.6362 13.414 52.6362 12.378V8.962C52.6362 7.926 53.0562 7.366 53.9382 7.366C54.8062 7.366 55.2262 7.926 55.2262 8.962ZM64.7468 8.78C64.7468 6.526 63.2348 5.714 61.4988 5.714C59.7628 5.714 58.2508 6.526 58.2508 8.794V12.546C58.2508 14.716 59.7628 15.626 61.4988 15.626C63.2348 15.626 64.7468 14.716 64.7468 12.546V8.78ZM62.7868 8.962V12.378C62.7868 13.414 62.3668 13.974 61.4988 13.974C60.6168 13.974 60.1968 13.414 60.1968 12.378V8.962C60.1968 7.926 60.6168 7.366 61.4988 7.366C62.3668 7.366 62.7868 7.926 62.7868 8.962ZM75.9193 5.84L70.5153 15.5H72.2513L77.6413 5.84H75.9193ZM79.1253 12.7C79.1253 11.328 78.3833 10.628 77.0113 10.628C75.6673 10.628 74.9113 11.342 74.9113 12.7V13.526C74.9113 14.884 75.6393 15.626 77.0113 15.626C78.5233 15.626 79.1253 14.786 79.1253 13.526V12.7ZM77.0113 14.408C76.5633 14.408 76.3673 14.128 76.3673 13.526V12.742C76.3673 12.112 76.5913 11.86 77.0113 11.86C77.4593 11.86 77.6833 12.098 77.6833 12.742V13.526C77.6833 14.128 77.4733 14.408 77.0113 14.408ZM73.3013 7.786C73.3013 6.414 72.5593 5.714 71.1733 5.714C69.8433 5.714 69.0873 6.428 69.0873 7.786V8.612C69.0873 9.97 69.8153 10.712 71.1733 10.712C72.6993 10.712 73.3013 9.872 73.3013 8.612V7.786ZM71.1873 9.494C70.7253 9.494 70.5433 9.214 70.5433 8.612V7.828C70.5433 7.198 70.7673 6.946 71.1873 6.946C71.6353 6.946 71.8593 7.184 71.8593 7.828V8.612C71.8593 9.214 71.6493 9.494 71.1873 9.494Z" fill="white"/>
<path d="M49.6257 216.78C49.6257 214.526 48.1137 213.714 46.3777 213.714C44.6417 213.714 43.1297 214.526 43.1297 216.794V220.546C43.1297 222.716 44.6417 223.626 46.3777 223.626C48.1137 223.626 49.6257 222.716 49.6257 220.546V216.78ZM47.6657 216.962V220.378C47.6657 221.414 47.2457 221.974 46.3777 221.974C45.4957 221.974 45.0757 221.414 45.0757 220.378V216.962C45.0757 215.926 45.4957 215.366 46.3777 215.366C47.2457 215.366 47.6657 215.926 47.6657 216.962ZM57.1862 216.78C57.1862 214.526 55.6742 213.714 53.9382 213.714C52.2022 213.714 50.6902 214.526 50.6902 216.794V220.546C50.6902 222.716 52.2022 223.626 53.9382 223.626C55.6742 223.626 57.1862 222.716 57.1862 220.546V216.78ZM55.2262 216.962V220.378C55.2262 221.414 54.8062 221.974 53.9382 221.974C53.0562 221.974 52.6362 221.414 52.6362 220.378V216.962C52.6362 215.926 53.0562 215.366 53.9382 215.366C54.8062 215.366 55.2262 215.926 55.2262 216.962ZM64.7468 216.78C64.7468 214.526 63.2348 213.714 61.4988 213.714C59.7628 213.714 58.2508 214.526 58.2508 216.794V220.546C58.2508 222.716 59.7628 223.626 61.4988 223.626C63.2348 223.626 64.7468 222.716 64.7468 220.546V216.78ZM62.7868 216.962V220.378C62.7868 221.414 62.3668 221.974 61.4988 221.974C60.6168 221.974 60.1968 221.414 60.1968 220.378V216.962C60.1968 215.926 60.6168 215.366 61.4988 215.366C62.3668 215.366 62.7868 215.926 62.7868 216.962ZM75.9193 213.84L70.5153 223.5H72.2513L77.6413 213.84H75.9193ZM79.1253 220.7C79.1253 219.328 78.3833 218.628 77.0113 218.628C75.6673 218.628 74.9113 219.342 74.9113 220.7V221.526C74.9113 222.884 75.6393 223.626 77.0113 223.626C78.5233 223.626 79.1253 222.786 79.1253 221.526V220.7ZM77.0113 222.408C76.5633 222.408 76.3673 222.128 76.3673 221.526V220.742C76.3673 220.112 76.5913 219.86 77.0113 219.86C77.4593 219.86 77.6833 220.098 77.6833 220.742V221.526C77.6833 222.128 77.4733 222.408 77.0113 222.408ZM73.3013 215.786C73.3013 214.414 72.5593 213.714 71.1733 213.714C69.8433 213.714 69.0873 214.428 69.0873 215.786V216.612C69.0873 217.97 69.8153 218.712 71.1733 218.712C72.6993 218.712 73.3013 217.872 73.3013 216.612V215.786ZM71.1873 217.494C70.7253 217.494 70.5433 217.214 70.5433 216.612V215.828C70.5433 215.198 70.7673 214.946 71.1873 214.946C71.6353 214.946 71.8593 215.184 71.8593 215.828V216.612C71.8593 217.214 71.6493 217.494 71.1873 217.494Z" fill="white"/>
</svg>
