<svg width="49" height="49" viewBox="0 0 49 49" fill="none" xmlns="http://www.w3.org/2000/svg">
<path d="M43.969 11.4183L42.5682 14.1813C42.4669 14.3928 42.4143 14.6244 42.4143 14.8589C42.4143 15.0934 42.4669 15.3246 42.5682 15.5361C44.3044 19.2615 44.8552 23.4301 44.1459 27.4786C43.4367 31.5271 41.5017 35.2604 38.6025 38.1738L38.3438 38.4325C37.2163 39.4016 35.7649 39.9099 34.2792 39.856C33.6315 39.8632 32.9844 39.8121 32.3458 39.7036C32.1428 39.6731 31.9372 39.6351 31.7291 39.5895C30.3892 39.312 29.1456 38.687 28.1236 37.7772C27.1015 36.8674 26.337 35.7046 25.9062 34.4058C25.8724 34.3137 25.8442 34.22 25.8222 34.1244C24.4064 29.1387 27.7863 23.4678 28.7301 21.8846C29.8815 19.946 31.2671 18.1564 32.8557 16.5563C32.9663 16.4531 33.0588 16.332 33.1296 16.1984C33.1977 16.0746 33.2464 15.9411 33.2742 15.8026C33.3048 15.7034 33.3113 15.5984 33.2928 15.4963C33.2743 15.3942 33.2313 15.2982 33.1679 15.2161C33.1045 15.134 33.0223 15.0683 32.9282 15.0247C32.834 14.981 32.7307 14.9606 32.6271 14.9652H32.452C32.1614 15.0234 31.8957 15.1698 31.6909 15.3841C30.0908 16.9727 28.3012 18.3582 26.3626 19.5096C24.7717 20.4459 19.1088 23.833 14.1231 22.4172L13.8183 22.3261C12.521 21.8884 11.3612 21.1181 10.4543 20.0924C9.54746 19.0667 8.92527 17.8212 8.64985 16.4801C8.61179 16.2898 8.574 16.1072 8.54355 15.9245C8.43035 15.2709 8.37416 14.6086 8.37593 13.9453C8.33769 13.1801 8.45273 12.4151 8.71415 11.6949C8.97557 10.9747 9.37811 10.3139 9.8983 9.7514C11.7726 7.86853 14.0037 6.37822 16.4609 5.36792C18.918 4.35762 21.5521 3.84762 24.2088 3.86749C27.0735 3.86601 29.9061 4.47011 32.5208 5.64073C32.7366 5.74573 32.9732 5.80054 33.2132 5.80054C33.4532 5.80054 33.6902 5.74573 33.906 5.64073L36.73 4.20236C36.7921 4.17106 36.845 4.12379 36.8831 4.06559C36.9212 4.00738 36.9432 3.9403 36.947 3.87083C36.9509 3.80136 36.9365 3.73182 36.905 3.66976C36.8736 3.60769 36.8265 3.55499 36.7683 3.517C31.7464 0.45783 25.7761 -0.650948 19.9907 0.400544C14.2052 1.45204 9.00675 4.59083 5.38249 9.2214C1.75823 13.852 -0.0395995 19.652 0.32962 25.5206C0.698839 31.3893 3.20975 36.9181 7.3858 41.0579C11.5618 45.1978 17.1121 47.6603 22.9837 47.9784C28.8554 48.2965 34.6395 46.448 39.2384 42.7836C43.8372 39.1192 46.9307 33.8937 47.9318 28.0993C48.9329 22.3049 47.772 16.3446 44.6693 11.3496C44.6283 11.2908 44.5723 11.2443 44.5072 11.2143C44.4421 11.1843 44.3704 11.172 44.2991 11.179C44.2278 11.186 44.1594 11.2116 44.1013 11.2537C44.0433 11.2957 43.9978 11.3527 43.969 11.4183Z" fill="white"/>
<path d="M44.6541 4.58308L37.7578 18.1851C37.6968 18.3347 37.5898 18.4612 37.4523 18.546C37.3148 18.6308 37.1539 18.6698 36.9929 18.6571C36.8318 18.6444 36.679 18.5807 36.5565 18.4754C36.434 18.37 36.3483 18.2283 36.3116 18.071L34.9186 13.7704C34.882 13.6521 34.8169 13.5446 34.7294 13.4571C34.6418 13.3695 34.5344 13.3045 34.4161 13.2679L30.1155 11.8753C29.9581 11.8386 29.8164 11.7524 29.7111 11.63C29.6058 11.5075 29.5424 11.3547 29.5297 11.1936C29.517 11.0326 29.5557 10.8717 29.6405 10.7342C29.7253 10.5967 29.8517 10.4896 30.0014 10.4287L43.6038 3.53237C43.7499 3.43976 43.9229 3.39999 44.0948 3.41901C44.2667 3.43803 44.427 3.51488 44.5493 3.63718C44.6716 3.75948 44.7488 3.91982 44.7679 4.09173C44.7869 4.26364 44.7467 4.437 44.6541 4.58308Z" fill="white"/>
</svg>
