<svg width="20" height="20" viewBox="0 0 20 20" fill="none" xmlns="http://www.w3.org/2000/svg">
    <path d="M12.5 12.2L15.4 13.9L14.6 15.2L11 13V8H12.5V12.2ZM20 12C20 16.41 16.41 20 12 20C9.98 20 8.14 19.24 6.73 18H2C0.85 18 0 17.15 0 16L0 7C0 5.88 0.89 5.04 2 5V4.5C2 2.01 4.01 0 6.5 0C8.84 0 10.74 1.79 10.96 4.08C11.3 4.03 11.65 4 12 4C16.41 4 20 7.59 20 12ZM4 5H9V4.26C8.88 2.99 7.8 2 6.5 2C5.12 2 4 3.12 4 4.5V5ZM18 12C18 8.69 15.31 6 12 6C8.69 6 6 8.69 6 12C6 15.31 8.69 18 12 18C15.31 18 18 15.31 18 12Z" fill="white"/>
</svg>
