<svg width="32" height="32" viewBox="0 0 20 20" fill="none" xmlns="http://www.w3.org/2000/svg">
    <path d="M0.375 0.339844V19.5898H19.625V0.339844H0.375ZM16.3594 4.9375L15.3281 5.92578C15.2422 5.96875 15.1992 6.09766 15.1992 6.18359V13.4883C15.1992 13.5742 15.2422 13.7031 15.3281 13.7461L16.3164 14.7344V14.9492H11.2461V14.7344L12.3203 13.7461C12.4062 13.6172 12.4062 13.6172 12.4062 13.4453V7.55859L9.48438 14.9492H9.09766L5.74609 7.55859V12.5C5.70312 12.7148 5.78906 12.9297 5.91797 13.0586L7.29297 14.7344V14.9492H3.42578V14.7344L4.75781 13.0586C4.92969 12.9297 4.97266 12.7148 4.92969 12.5V6.78516C4.97266 6.65625 4.88672 6.48438 4.80078 6.35547L3.59766 4.9375V4.67969H7.33594L10.2148 11.0391L12.793 4.72266H16.3594V4.9375Z" fill="white"></path>
</svg>
