<svg width="42" height="42" viewBox="0 0 42 42" fill="none" xmlns="http://www.w3.org/2000/svg">
<path d="M35.8465 6.15349C27.6419 -2.05116 14.3581 -2.05116 6.15349 6.15349C-2.05116 14.3581 -2.05116 27.6419 6.15349 35.8465C14.3581 44.0512 27.6419 44.0512 35.8465 35.8465C44.0512 27.6419 44.0512 14.3581 35.8465 6.15349ZM33.3349 33.5581C29.986 36.6837 21.8372 33.7256 15.0837 26.9721C8.33023 20.2186 5.37209 11.7907 8.6093 8.55349C11.9023 5.20465 16.3674 3.4186 21.0558 3.4186C25.7442 3.4186 30.1535 5.26047 33.5023 8.55349C40.3116 15.3628 40.3674 26.4698 33.5581 33.3349L33.4465 33.5023C33.3907 33.5023 33.3907 33.5023 33.3349 33.5581Z" fill="url(#paint0_radial_10602_49155)"/>
<defs>
<radialGradient id="paint0_radial_10602_49155" cx="0" cy="0" r="1" gradientUnits="userSpaceOnUse" gradientTransform="rotate(63.4349) scale(46.9574 45.1414)">
<stop stop-color="#7000FF"/>
<stop offset="1" stop-color="#3E204D"/>
</radialGradient>
</defs>
</svg>
