<?xml version="1.0" encoding="utf-8"?>
<!-- Generator: Adobe Illustrator 25.3.1, SVG Export Plug-In . SVG Version: 6.00 Build 0)  -->
<svg version="1.1" id="Réteg_1" xmlns="http://www.w3.org/2000/svg" xmlns:xlink="http://www.w3.org/1999/xlink" x="0px" y="0px"
	 viewBox="0 0 22 19" style="enable-background:new 0 0 22 19;" xml:space="preserve">
<style type="text/css">
	.st0{fill-rule:evenodd;clip-rule:evenodd;fill:#FFFFFF;}
</style>
<path class="st0" d="M20,0.5H2c-1.1,0-2,0.9-2,2v12c0,1.1,0.9,2,2,2h5v1c0,0.5,0.4,1,1,1h6c0.6,0,1-0.5,1-1v-1h5c1.1,0,2-0.9,2-2
	l0-12C22,1.4,21.1,0.5,20,0.5z M19,14.5H3c-0.5,0-1-0.4-1-1v-10c0-0.5,0.5-1,1-1h16c0.5,0,1,0.5,1,1v10C20,14.1,19.5,14.5,19,14.5z
	 M9.5,11.6l4-2.3c0.7-0.4,0.7-1.3,0-1.7l-4-2.3C8.8,5,8,5.4,8,6.2v4.6C8,11.5,8.8,12,9.5,11.6z"/>
</svg>
