<?xml version="1.0" encoding="utf-8"?>
<!-- Generator: Adobe Illustrator 25.3.1, SVG Export Plug-In . SVG Version: 6.00 Build 0)  -->
<svg version="1.1" id="Réteg_1" xmlns="http://www.w3.org/2000/svg" xmlns:xlink="http://www.w3.org/1999/xlink" x="0px" y="0px"
	 viewBox="0 0 41 41" style="enable-background:new 0 0 41 41;" xml:space="preserve">
<style type="text/css">
	.st0{fill:#FFFFFF;}
	.st1{fill:none;stroke:#FFFFFF;}
</style>
<g>
	<path class="st0" d="M14.8,21.3h9.3l-4.1,4.1c-0.3,0.3-0.3,0.9,0,1.2c0.3,0.3,0.9,0.3,1.2,0l5.5-5.5c0.3-0.3,0.3-0.9,0-1.2
		l-5.5-5.5c-0.2-0.2-0.4-0.2-0.6-0.2s-0.4,0.1-0.6,0.2c-0.3,0.3-0.3,0.8,0,1.2l4.1,4.1h-9.3c-0.5,0-0.8,0.4-0.8,0.8
		C14,21,14.4,21.3,14.8,21.3z"/>
	<path class="st1" d="M20.5,0.5L20.5,0.5c11,0,20,9,20,20l0,0c0,11-9,20-20,20l0,0c-11,0-20-9-20-20l0,0C0.5,9.5,9.5,0.5,20.5,0.5z"
		/>
</g>
</svg>
