<?xml version="1.0" encoding="utf-8"?>
<!-- Generator: Adobe Illustrator 25.3.1, SVG Export Plug-In . SVG Version: 6.00 Build 0)  -->
<svg version="1.1" id="Réteg_1" xmlns="http://www.w3.org/2000/svg" xmlns:xlink="http://www.w3.org/1999/xlink" x="0px" y="0px"
	 viewBox="0 0 41 41" style="enable-background:new 0 0 41 41;" xml:space="preserve">
<style type="text/css">
	.st0{fill:#FFFFFF;}
	.st1{fill:none;stroke:#FFFFFF;}
</style>
<g>
	<path class="st0" d="M26.2,19.7h-9.3l4.1-4.1c0.3-0.3,0.3-0.9,0-1.2c-0.3-0.3-0.9-0.3-1.2,0l-5.5,5.5c-0.3,0.3-0.3,0.9,0,1.2
		l5.5,5.5c0.2,0.2,0.4,0.2,0.6,0.2s0.4-0.1,0.6-0.2c0.3-0.3,0.3-0.9,0-1.2l-4.1-4.1h9.3c0.5,0,0.8-0.4,0.8-0.8
		C27,20,26.6,19.7,26.2,19.7z"/>
	<path class="st1" d="M20.5,40.5L20.5,40.5c-11,0-20-9-20-20l0,0c0-11,9-20,20-20l0,0c11,0,20,9,20,20l0,0
		C40.5,31.5,31.5,40.5,20.5,40.5z"/>
</g>
</svg>
