<svg width="1440" height="691" viewBox="0 0 1440 691" fill="none" xmlns="http://www.w3.org/2000/svg">
<mask id="mask0_87_10261" style="mask-type:alpha" maskUnits="userSpaceOnUse" x="0" y="0" width="1440" height="691">
<rect width="1440" height="691" fill="url(#paint0_linear_87_10261)"/>
</mask>
<g mask="url(#mask0_87_10261)">
<g opacity="0.2">
<g clip-path="url(#clip0_87_10261)">
<rect width="1440" height="1" transform="matrix(-1 0 0 1 1440 2.93237)" fill="#00D6AF" fill-opacity="0.5"/>
<rect width="1440" height="1" transform="matrix(-1 0 0 1 1440 16.9324)" fill="#00D6AF" fill-opacity="0.5"/>
<rect width="1440" height="1" transform="matrix(-1 0 0 1 1440 30.9324)" fill="#00D6AF" fill-opacity="0.5"/>
<rect width="1440" height="1" transform="matrix(-1 0 0 1 1440 44.9324)" fill="#00D6AF" fill-opacity="0.5"/>
<rect width="1440" height="1" transform="matrix(-1 0 0 1 1440 58.9324)" fill="#00D6AF" fill-opacity="0.5"/>
<rect width="1440" height="1" transform="matrix(-1 0 0 1 1440 72.9324)" fill="#00D6AF" fill-opacity="0.5"/>
<rect width="1440" height="1" transform="matrix(-1 0 0 1 1440 86.9324)" fill="#00D6AF" fill-opacity="0.5"/>
<rect width="1440" height="1" transform="matrix(-1 0 0 1 1440 100.932)" fill="#00D6AF" fill-opacity="0.5"/>
<rect width="1440" height="1" transform="matrix(-1 0 0 1 1440 114.932)" fill="#00D6AF" fill-opacity="0.5"/>
<rect width="1440" height="1" transform="matrix(-1 0 0 1 1440 128.932)" fill="#00D6AF" fill-opacity="0.5"/>
<rect width="1440" height="1" transform="matrix(-1 0 0 1 1440 142.932)" fill="#00D6AF" fill-opacity="0.5"/>
<rect width="1440" height="1" transform="matrix(-1 0 0 1 1440 156.932)" fill="#00D6AF" fill-opacity="0.5"/>
<rect width="1440" height="1" transform="matrix(-1 0 0 1 1440 170.932)" fill="#00D6AF" fill-opacity="0.5"/>
<rect width="1440" height="1" transform="matrix(-1 0 0 1 1440 184.932)" fill="#00D6AF" fill-opacity="0.5"/>
<rect width="1440" height="1" transform="matrix(-1 0 0 1 1440 198.932)" fill="#00D6AF" fill-opacity="0.5"/>
<rect width="1440" height="1" transform="matrix(-1 0 0 1 1440 212.932)" fill="#00D6AF" fill-opacity="0.5"/>
<rect width="1440" height="1" transform="matrix(-1 0 0 1 1440 226.932)" fill="#00D6AF" fill-opacity="0.5"/>
<rect width="1440" height="1" transform="matrix(-1 0 0 1 1440 240.932)" fill="#00D6AF" fill-opacity="0.5"/>
<rect width="1440" height="1" transform="matrix(-1 0 0 1 1440 254.932)" fill="#00D6AF" fill-opacity="0.5"/>
<rect width="1440" height="1" transform="matrix(-1 0 0 1 1440 268.932)" fill="#00D6AF" fill-opacity="0.5"/>
<rect width="1440" height="1" transform="matrix(-1 0 0 1 1440 282.932)" fill="#00D6AF" fill-opacity="0.5"/>
<rect width="1440" height="1" transform="matrix(-1 0 0 1 1440 296.932)" fill="#00D6AF" fill-opacity="0.5"/>
<rect width="1440" height="1" transform="matrix(-1 0 0 1 1440 310.932)" fill="#00D6AF" fill-opacity="0.5"/>
<rect width="1440" height="1" transform="matrix(-1 0 0 1 1440 324.932)" fill="#00D6AF" fill-opacity="0.5"/>
<rect width="1440" height="1" transform="matrix(-1 0 0 1 1440 338.932)" fill="#00D6AF" fill-opacity="0.5"/>
<rect width="1440" height="1" transform="matrix(-1 0 0 1 1440 352.932)" fill="#00D6AF" fill-opacity="0.5"/>
<rect width="1440" height="1" transform="matrix(-1 0 0 1 1440 366.932)" fill="#00D6AF" fill-opacity="0.5"/>
<rect width="1440" height="1" transform="matrix(-1 0 0 1 1440 380.932)" fill="#00D6AF" fill-opacity="0.5"/>
<rect width="1440" height="1" transform="matrix(-1 0 0 1 1440 394.932)" fill="#00D6AF" fill-opacity="0.5"/>
<rect width="1440" height="1" transform="matrix(-1 0 0 1 1440 408.932)" fill="#00D6AF" fill-opacity="0.5"/>
<rect width="1440" height="1" transform="matrix(-1 0 0 1 1440 422.932)" fill="#00D6AF" fill-opacity="0.5"/>
<rect width="1440" height="1" transform="matrix(-1 0 0 1 1440 436.932)" fill="#00D6AF" fill-opacity="0.5"/>
<rect width="1440" height="1" transform="matrix(-1 0 0 1 1440 450.932)" fill="#00D6AF" fill-opacity="0.5"/>
<rect width="1440" height="1" transform="matrix(-1 0 0 1 1440 464.932)" fill="#00D6AF" fill-opacity="0.5"/>
<rect width="1440" height="1" transform="matrix(-1 0 0 1 1440 478.932)" fill="#00D6AF" fill-opacity="0.5"/>
<rect width="1440" height="1" transform="matrix(-1 0 0 1 1440 492.932)" fill="#00D6AF" fill-opacity="0.5"/>
<rect width="1440" height="1" transform="matrix(-1 0 0 1 1440 506.932)" fill="#00D6AF" fill-opacity="0.5"/>
<rect width="1440" height="1" transform="matrix(-1 0 0 1 1440 520.932)" fill="#00D6AF" fill-opacity="0.5"/>
<rect width="1440" height="1" transform="matrix(-1 0 0 1 1440 534.932)" fill="#00D6AF" fill-opacity="0.5"/>
<rect width="1440" height="1" transform="matrix(-1 0 0 1 1440 548.932)" fill="#00D6AF" fill-opacity="0.5"/>
<rect width="1440" height="1" transform="matrix(-1 0 0 1 1440 562.932)" fill="#00D6AF" fill-opacity="0.5"/>
<rect width="1440" height="1" transform="matrix(-1 0 0 1 1440 576.932)" fill="#00D6AF" fill-opacity="0.5"/>
<rect width="1440" height="1" transform="matrix(-1 0 0 1 1440 590.932)" fill="#00D6AF" fill-opacity="0.5"/>
<rect width="1440" height="1" transform="matrix(-1 0 0 1 1440 604.932)" fill="#00D6AF" fill-opacity="0.5"/>
<rect width="1440" height="1" transform="matrix(-1 0 0 1 1440 618.932)" fill="#00D6AF" fill-opacity="0.5"/>
<rect width="1440" height="1" transform="matrix(-1 0 0 1 1440 632.932)" fill="#00D6AF" fill-opacity="0.5"/>
<rect width="1440" height="1" transform="matrix(-1 0 0 1 1440 646.932)" fill="#00D6AF" fill-opacity="0.5"/>
<rect width="1440" height="1" transform="matrix(-1 0 0 1 1440 660.932)" fill="#00D6AF" fill-opacity="0.5"/>
<rect width="1440" height="1" transform="matrix(-1 0 0 1 1440 674.932)" fill="#00D6AF" fill-opacity="0.5"/>
<rect width="1440" height="1" transform="matrix(-1 0 0 1 1440 688.932)" fill="#00D6AF" fill-opacity="0.5"/>
</g>
<g clip-path="url(#clip1_87_10261)">
<rect width="851" height="1" transform="matrix(4.37114e-08 1 1 -4.37114e-08 0 -11.0676)" fill="#00D6AF" fill-opacity="0.5"/>
<rect width="851" height="1" transform="matrix(4.37114e-08 1 1 -4.37114e-08 14 -11.0676)" fill="#00D6AF" fill-opacity="0.5"/>
<rect width="851" height="1" transform="matrix(4.37114e-08 1 1 -4.37114e-08 28 -11.0676)" fill="#00D6AF" fill-opacity="0.5"/>
<rect width="851" height="1" transform="matrix(4.37114e-08 1 1 -4.37114e-08 42 -11.0676)" fill="#00D6AF" fill-opacity="0.5"/>
<rect width="851" height="1" transform="matrix(4.37114e-08 1 1 -4.37114e-08 56 -11.0676)" fill="#00D6AF" fill-opacity="0.5"/>
<rect width="851" height="1" transform="matrix(4.37114e-08 1 1 -4.37114e-08 70 -11.0676)" fill="#00D6AF" fill-opacity="0.5"/>
<rect width="851" height="1" transform="matrix(4.37114e-08 1 1 -4.37114e-08 84 -11.0676)" fill="#00D6AF" fill-opacity="0.5"/>
<rect width="851" height="1" transform="matrix(4.37114e-08 1 1 -4.37114e-08 98 -11.0676)" fill="#00D6AF" fill-opacity="0.5"/>
<rect width="851" height="1" transform="matrix(4.37114e-08 1 1 -4.37114e-08 112 -11.0676)" fill="#00D6AF" fill-opacity="0.5"/>
<rect width="851" height="1" transform="matrix(4.37114e-08 1 1 -4.37114e-08 126 -11.0676)" fill="#00D6AF" fill-opacity="0.5"/>
<rect width="851" height="1" transform="matrix(4.37114e-08 1 1 -4.37114e-08 140 -11.0676)" fill="#00D6AF" fill-opacity="0.5"/>
<rect width="851" height="1" transform="matrix(4.37114e-08 1 1 -4.37114e-08 154 -11.0676)" fill="#00D6AF" fill-opacity="0.5"/>
<rect width="851" height="1" transform="matrix(4.37114e-08 1 1 -4.37114e-08 168 -11.0676)" fill="#00D6AF" fill-opacity="0.5"/>
<rect width="851" height="1" transform="matrix(4.37114e-08 1 1 -4.37114e-08 182 -11.0676)" fill="#00D6AF" fill-opacity="0.5"/>
<rect width="851" height="1" transform="matrix(4.37114e-08 1 1 -4.37114e-08 196 -11.0676)" fill="#00D6AF" fill-opacity="0.5"/>
<rect width="851" height="1" transform="matrix(4.37114e-08 1 1 -4.37114e-08 210 -11.0676)" fill="#00D6AF" fill-opacity="0.5"/>
<rect width="851" height="1" transform="matrix(4.37114e-08 1 1 -4.37114e-08 224 -11.0676)" fill="#00D6AF" fill-opacity="0.5"/>
<rect width="851" height="1" transform="matrix(4.37114e-08 1 1 -4.37114e-08 238 -11.0676)" fill="#00D6AF" fill-opacity="0.5"/>
<rect width="851" height="1" transform="matrix(4.37114e-08 1 1 -4.37114e-08 252 -11.0676)" fill="#00D6AF" fill-opacity="0.5"/>
<rect width="851" height="1" transform="matrix(4.37114e-08 1 1 -4.37114e-08 266 -11.0676)" fill="#00D6AF" fill-opacity="0.5"/>
<rect width="851" height="1" transform="matrix(4.37114e-08 1 1 -4.37114e-08 280 -11.0676)" fill="#00D6AF" fill-opacity="0.5"/>
<rect width="851" height="1" transform="matrix(4.37114e-08 1 1 -4.37114e-08 294 -11.0676)" fill="#00D6AF" fill-opacity="0.5"/>
<rect width="851" height="1" transform="matrix(4.37114e-08 1 1 -4.37114e-08 308 -11.0676)" fill="#00D6AF" fill-opacity="0.5"/>
<rect width="851" height="1" transform="matrix(4.37114e-08 1 1 -4.37114e-08 322 -11.0676)" fill="#00D6AF" fill-opacity="0.5"/>
<rect width="851" height="1" transform="matrix(4.37114e-08 1 1 -4.37114e-08 336 -11.0676)" fill="#00D6AF" fill-opacity="0.5"/>
<rect width="851" height="1" transform="matrix(4.37114e-08 1 1 -4.37114e-08 350 -11.0676)" fill="#00D6AF" fill-opacity="0.5"/>
<rect width="851" height="1" transform="matrix(4.37114e-08 1 1 -4.37114e-08 364 -11.0676)" fill="#00D6AF" fill-opacity="0.5"/>
<rect width="851" height="1" transform="matrix(4.37114e-08 1 1 -4.37114e-08 378 -11.0676)" fill="#00D6AF" fill-opacity="0.5"/>
<rect width="851" height="1" transform="matrix(4.37114e-08 1 1 -4.37114e-08 392 -11.0676)" fill="#00D6AF" fill-opacity="0.5"/>
<rect width="851" height="1" transform="matrix(4.37114e-08 1 1 -4.37114e-08 406 -11.0676)" fill="#00D6AF" fill-opacity="0.5"/>
<rect width="851" height="1" transform="matrix(4.37114e-08 1 1 -4.37114e-08 420 -11.0676)" fill="#00D6AF" fill-opacity="0.5"/>
<rect width="851" height="1" transform="matrix(4.37114e-08 1 1 -4.37114e-08 434 -11.0676)" fill="#00D6AF" fill-opacity="0.5"/>
<rect width="851" height="1" transform="matrix(4.37114e-08 1 1 -4.37114e-08 448 -11.0676)" fill="#00D6AF" fill-opacity="0.5"/>
<rect width="851" height="1" transform="matrix(4.37114e-08 1 1 -4.37114e-08 462 -11.0676)" fill="#00D6AF" fill-opacity="0.5"/>
<rect width="851" height="1" transform="matrix(4.37114e-08 1 1 -4.37114e-08 476 -11.0676)" fill="#00D6AF" fill-opacity="0.5"/>
<rect width="851" height="1" transform="matrix(4.37114e-08 1 1 -4.37114e-08 490 -11.0676)" fill="#00D6AF" fill-opacity="0.5"/>
<rect width="851" height="1" transform="matrix(4.37114e-08 1 1 -4.37114e-08 504 -11.0676)" fill="#00D6AF" fill-opacity="0.5"/>
<rect width="851" height="1" transform="matrix(4.37114e-08 1 1 -4.37114e-08 518 -11.0676)" fill="#00D6AF" fill-opacity="0.5"/>
<rect width="851" height="1" transform="matrix(4.37114e-08 1 1 -4.37114e-08 532 -11.0676)" fill="#00D6AF" fill-opacity="0.5"/>
<rect width="851" height="1" transform="matrix(4.37114e-08 1 1 -4.37114e-08 546 -11.0676)" fill="#00D6AF" fill-opacity="0.5"/>
<rect width="851" height="1" transform="matrix(4.37114e-08 1 1 -4.37114e-08 560 -11.0676)" fill="#00D6AF" fill-opacity="0.5"/>
<rect width="851" height="1" transform="matrix(4.37114e-08 1 1 -4.37114e-08 574 -11.0676)" fill="#00D6AF" fill-opacity="0.5"/>
<rect width="851" height="1" transform="matrix(4.37114e-08 1 1 -4.37114e-08 588 -11.0676)" fill="#00D6AF" fill-opacity="0.5"/>
<rect width="851" height="1" transform="matrix(4.37114e-08 1 1 -4.37114e-08 602 -11.0676)" fill="#00D6AF" fill-opacity="0.5"/>
<rect width="851" height="1" transform="matrix(4.37114e-08 1 1 -4.37114e-08 616 -11.0676)" fill="#00D6AF" fill-opacity="0.5"/>
<rect width="851" height="1" transform="matrix(4.37114e-08 1 1 -4.37114e-08 630 -11.0676)" fill="#00D6AF" fill-opacity="0.5"/>
<rect width="851" height="1" transform="matrix(4.37114e-08 1 1 -4.37114e-08 644 -11.0676)" fill="#00D6AF" fill-opacity="0.5"/>
<rect width="851" height="1" transform="matrix(4.37114e-08 1 1 -4.37114e-08 658 -11.0676)" fill="#00D6AF" fill-opacity="0.5"/>
<rect width="851" height="1" transform="matrix(4.37114e-08 1 1 -4.37114e-08 672 -11.0676)" fill="#00D6AF" fill-opacity="0.5"/>
<rect width="851" height="1" transform="matrix(4.37114e-08 1 1 -4.37114e-08 686 -11.0676)" fill="#00D6AF" fill-opacity="0.5"/>
<rect width="851" height="1" transform="matrix(4.37114e-08 1 1 -4.37114e-08 700 -11.0676)" fill="#00D6AF" fill-opacity="0.5"/>
<rect width="851" height="1" transform="matrix(4.37114e-08 1 1 -4.37114e-08 714 -11.0676)" fill="#00D6AF" fill-opacity="0.5"/>
<rect width="851" height="1" transform="matrix(4.37114e-08 1 1 -4.37114e-08 728 -11.0676)" fill="#00D6AF" fill-opacity="0.5"/>
<rect width="851" height="1" transform="matrix(4.37114e-08 1 1 -4.37114e-08 742 -11.0676)" fill="#00D6AF" fill-opacity="0.5"/>
<rect width="851" height="1" transform="matrix(4.37114e-08 1 1 -4.37114e-08 756 -11.0676)" fill="#00D6AF" fill-opacity="0.5"/>
<rect width="851" height="1" transform="matrix(4.37114e-08 1 1 -4.37114e-08 770 -11.0676)" fill="#00D6AF" fill-opacity="0.5"/>
<rect width="851" height="1" transform="matrix(4.37114e-08 1 1 -4.37114e-08 784 -11.0676)" fill="#00D6AF" fill-opacity="0.5"/>
<rect width="851" height="1" transform="matrix(4.37114e-08 1 1 -4.37114e-08 798 -11.0676)" fill="#00D6AF" fill-opacity="0.5"/>
<rect width="851" height="1" transform="matrix(4.37114e-08 1 1 -4.37114e-08 812 -11.0676)" fill="#00D6AF" fill-opacity="0.5"/>
<rect width="851" height="1" transform="matrix(4.37114e-08 1 1 -4.37114e-08 826 -11.0676)" fill="#00D6AF" fill-opacity="0.5"/>
<rect width="851" height="1" transform="matrix(4.37114e-08 1 1 -4.37114e-08 840 -11.0676)" fill="#00D6AF" fill-opacity="0.5"/>
<rect width="851" height="1" transform="matrix(4.37114e-08 1 1 -4.37114e-08 854 -11.0676)" fill="#00D6AF" fill-opacity="0.5"/>
<rect width="851" height="1" transform="matrix(4.37114e-08 1 1 -4.37114e-08 868 -11.0676)" fill="#00D6AF" fill-opacity="0.5"/>
<rect width="851" height="1" transform="matrix(4.37114e-08 1 1 -4.37114e-08 882 -11.0676)" fill="#00D6AF" fill-opacity="0.5"/>
<rect width="851" height="1" transform="matrix(4.37114e-08 1 1 -4.37114e-08 896 -11.0676)" fill="#00D6AF" fill-opacity="0.5"/>
<rect width="851" height="1" transform="matrix(4.37114e-08 1 1 -4.37114e-08 910 -11.0676)" fill="#00D6AF" fill-opacity="0.5"/>
<rect width="851" height="1" transform="matrix(4.37114e-08 1 1 -4.37114e-08 924 -11.0676)" fill="#00D6AF" fill-opacity="0.5"/>
<rect width="851" height="1" transform="matrix(4.37114e-08 1 1 -4.37114e-08 938 -11.0676)" fill="#00D6AF" fill-opacity="0.5"/>
<rect width="851" height="1" transform="matrix(4.37114e-08 1 1 -4.37114e-08 952 -11.0676)" fill="#00D6AF" fill-opacity="0.5"/>
<rect width="851" height="1" transform="matrix(4.37114e-08 1 1 -4.37114e-08 966 -11.0676)" fill="#00D6AF" fill-opacity="0.5"/>
<rect width="851" height="1" transform="matrix(4.37114e-08 1 1 -4.37114e-08 980 -11.0676)" fill="#00D6AF" fill-opacity="0.5"/>
<rect width="851" height="1" transform="matrix(4.37114e-08 1 1 -4.37114e-08 994 -11.0676)" fill="#00D6AF" fill-opacity="0.5"/>
<rect width="851" height="1" transform="matrix(4.37114e-08 1 1 -4.37114e-08 1008 -11.0676)" fill="#00D6AF" fill-opacity="0.5"/>
<rect width="851" height="1" transform="matrix(4.37114e-08 1 1 -4.37114e-08 1022 -11.0676)" fill="#00D6AF" fill-opacity="0.5"/>
<rect width="851" height="1" transform="matrix(4.37114e-08 1 1 -4.37114e-08 1036 -11.0676)" fill="#00D6AF" fill-opacity="0.5"/>
<rect width="851" height="1" transform="matrix(4.37114e-08 1 1 -4.37114e-08 1050 -11.0676)" fill="#00D6AF" fill-opacity="0.5"/>
<rect width="851" height="1" transform="matrix(4.37114e-08 1 1 -4.37114e-08 1064 -11.0676)" fill="#00D6AF" fill-opacity="0.5"/>
<rect width="851" height="1" transform="matrix(4.37114e-08 1 1 -4.37114e-08 1078 -11.0676)" fill="#00D6AF" fill-opacity="0.5"/>
<rect width="851" height="1" transform="matrix(4.37114e-08 1 1 -4.37114e-08 1092 -11.0676)" fill="#00D6AF" fill-opacity="0.5"/>
<rect width="851" height="1" transform="matrix(4.37114e-08 1 1 -4.37114e-08 1106 -11.0676)" fill="#00D6AF" fill-opacity="0.5"/>
<rect width="851" height="1" transform="matrix(4.37114e-08 1 1 -4.37114e-08 1120 -11.0676)" fill="#00D6AF" fill-opacity="0.5"/>
<rect width="851" height="1" transform="matrix(4.37114e-08 1 1 -4.37114e-08 1134 -11.0676)" fill="#00D6AF" fill-opacity="0.5"/>
<rect width="851" height="1" transform="matrix(4.37114e-08 1 1 -4.37114e-08 1148 -11.0676)" fill="#00D6AF" fill-opacity="0.5"/>
<rect width="851" height="1" transform="matrix(4.37114e-08 1 1 -4.37114e-08 1162 -11.0676)" fill="#00D6AF" fill-opacity="0.5"/>
<rect width="851" height="1" transform="matrix(4.37114e-08 1 1 -4.37114e-08 1176 -11.0676)" fill="#00D6AF" fill-opacity="0.5"/>
<rect width="851" height="1" transform="matrix(4.37114e-08 1 1 -4.37114e-08 1190 -11.0676)" fill="#00D6AF" fill-opacity="0.5"/>
<rect width="851" height="1" transform="matrix(4.37114e-08 1 1 -4.37114e-08 1204 -11.0676)" fill="#00D6AF" fill-opacity="0.5"/>
<rect width="851" height="1" transform="matrix(4.37114e-08 1 1 -4.37114e-08 1218 -11.0676)" fill="#00D6AF" fill-opacity="0.5"/>
<rect width="851" height="1" transform="matrix(4.37114e-08 1 1 -4.37114e-08 1232 -11.0676)" fill="#00D6AF" fill-opacity="0.5"/>
<rect width="851" height="1" transform="matrix(4.37114e-08 1 1 -4.37114e-08 1246 -11.0676)" fill="#00D6AF" fill-opacity="0.5"/>
<rect width="851" height="1" transform="matrix(4.37114e-08 1 1 -4.37114e-08 1260 -11.0676)" fill="#00D6AF" fill-opacity="0.5"/>
<rect width="851" height="1" transform="matrix(4.37114e-08 1 1 -4.37114e-08 1274 -11.0676)" fill="#00D6AF" fill-opacity="0.5"/>
<rect width="851" height="1" transform="matrix(4.37114e-08 1 1 -4.37114e-08 1288 -11.0676)" fill="#00D6AF" fill-opacity="0.5"/>
<rect width="851" height="1" transform="matrix(4.37114e-08 1 1 -4.37114e-08 1302 -11.0676)" fill="#00D6AF" fill-opacity="0.5"/>
<rect width="851" height="1" transform="matrix(4.37114e-08 1 1 -4.37114e-08 1316 -11.0676)" fill="#00D6AF" fill-opacity="0.5"/>
<rect width="851" height="1" transform="matrix(4.37114e-08 1 1 -4.37114e-08 1330 -11.0676)" fill="#00D6AF" fill-opacity="0.5"/>
<rect width="851" height="1" transform="matrix(4.37114e-08 1 1 -4.37114e-08 1344 -11.0676)" fill="#00D6AF" fill-opacity="0.5"/>
<rect width="851" height="1" transform="matrix(4.37114e-08 1 1 -4.37114e-08 1358 -11.0676)" fill="#00D6AF" fill-opacity="0.5"/>
<rect width="851" height="1" transform="matrix(4.37114e-08 1 1 -4.37114e-08 1372 -11.0676)" fill="#00D6AF" fill-opacity="0.5"/>
<rect width="851" height="1" transform="matrix(4.37114e-08 1 1 -4.37114e-08 1386 -11.0676)" fill="#00D6AF" fill-opacity="0.5"/>
<rect width="851" height="1" transform="matrix(4.37114e-08 1 1 -4.37114e-08 1400 -11.0677)" fill="#00D6AF" fill-opacity="0.5"/>
<rect width="851" height="1" transform="matrix(4.37114e-08 1 1 -4.37114e-08 1414 -11.0677)" fill="#00D6AF" fill-opacity="0.5"/>
<rect width="851" height="1" transform="matrix(4.37114e-08 1 1 -4.37114e-08 1428 -11.0677)" fill="#00D6AF" fill-opacity="0.5"/>
</g>
</g>
</g>
<defs>
<linearGradient id="paint0_linear_87_10261" x1="720" y1="0" x2="720" y2="691" gradientUnits="userSpaceOnUse">
<stop offset="0.216528" stop-color="#C4C4C4" stop-opacity="0"/>
<stop offset="1" stop-color="#C4C4C4"/>
</linearGradient>
<clipPath id="clip0_87_10261">
<rect width="1440" height="864" fill="white" transform="matrix(-1 0 0 1 1440 -11.0676)"/>
</clipPath>
<clipPath id="clip1_87_10261">
<rect width="851" height="1432" fill="white" transform="matrix(4.37114e-08 1 1 -4.37114e-08 0 -11.0676)"/>
</clipPath>
</defs>
</svg>
