<svg width="32" height="32" viewBox="0 0 32 32" fill="none" xmlns="http://www.w3.org/2000/svg">
    <path fill-rule="evenodd" clip-rule="evenodd" d="M0 16C0 7.16344 7.16344 0 16 0C24.8366 0 32 7.16344 32 16C31.9903 24.8325 24.8325 31.9903 16 32C7.16344 32 0 24.8366 0 16ZM5.52086 15.1441C5.87364 14.254 6.73379 13.6693 7.6912 13.6688C8.28549 13.6675 8.85762 13.8943 9.2896 14.3024C11.1327 13.0512 13.3021 12.3675 15.5296 12.336L16.7264 6.7792C16.7762 6.55332 16.9751 6.39155 17.2064 6.3888C17.2419 6.3888 17.2773 6.39256 17.312 6.4L21.2288 7.1872C21.485 6.74626 21.9361 6.45387 22.4432 6.4C22.5032 6.39186 22.5635 6.38705 22.624 6.3856C23.4766 6.3856 24.1795 7.05397 24.2222 7.9055C24.2649 8.75703 23.6323 9.49245 22.784 9.5776C22.7261 9.58393 22.6679 9.58713 22.6096 9.5872C21.7935 9.58626 21.1089 8.9713 21.0208 8.16L17.6 7.44L16.56 12.432C18.7604 12.4788 20.9 13.1624 22.72 14.4C23.1328 14.0018 23.678 13.77 24.2512 13.7488H24.336C25.4156 13.7351 26.3601 14.4724 26.6088 15.523C26.8575 16.5736 26.3439 17.6562 25.3728 18.128C25.3914 18.3618 25.3914 18.5966 25.3728 18.8304C25.3728 22.4144 21.1872 25.3296 16.0448 25.3296C10.9024 25.3296 6.7184 22.4144 6.7184 18.8304C6.6983 18.5967 6.6983 18.3617 6.7184 18.128C6.48741 18.0229 6.27547 17.8801 6.0912 17.7056C5.39413 17.0493 5.16809 16.0341 5.52086 15.1441ZM16.0176 23.2384H16.288V23.2368C17.6196 23.2333 18.914 22.797 19.976 21.9936V22.0576C20.1539 21.8827 20.1575 21.5969 19.984 21.4176C19.8997 21.3316 19.7844 21.2831 19.664 21.2831C19.5436 21.2831 19.4283 21.3316 19.344 21.4176C18.4527 22.0581 17.3824 22.4018 16.2848 22.4H16H15.7664C14.6544 22.4035 13.5706 22.0508 12.6736 21.3936C12.5964 21.3305 12.4997 21.296 12.4 21.296C12.3003 21.2964 12.2038 21.3308 12.1264 21.3936C12.0376 21.4661 11.9813 21.5711 11.9702 21.6853C11.9591 21.7994 11.994 21.9133 12.0672 22.0016C13.1286 22.7995 14.4193 23.2333 15.7472 23.2384H16.0176ZM19.6896 19.328H19.6912H19.7456C20.1694 19.3132 20.5695 19.1287 20.856 18.816C21.3487 18.3111 21.4238 17.5315 21.0365 16.9419C20.6492 16.3523 19.9039 16.1115 19.2449 16.3631C18.5858 16.6147 18.1906 17.2909 18.2948 17.9886C18.399 18.6863 18.9746 19.2175 19.6784 19.2656L19.6656 19.328H19.6896ZM10.672 17.6C10.672 18.4837 11.3883 19.2 12.272 19.2C13.1557 19.2 13.872 18.4837 13.872 17.6C13.872 16.7163 13.1557 16 12.272 16C11.3883 16 10.672 16.7163 10.672 17.6Z" fill="white"/>
</svg>
